# xmcd
#
# Track frame offsets:
#	150
#	14079
#	39238
#	57895
#	83667
#	107607
#	126938
#	147228
#	164180
#	181667
#	209053
#	241017
#	256422
#	274132
#
# Disc length: 4082 seconds
#
# Revision: 1
# Processed by: cddbd v1.5.1PL2 Copyright (c) Steve Scherf et al.
# Submitted via: audiograbber 1.83.01
#
DISCID=c60ff00e
DTITLE=Guitar Shorty - The Best Of Guitar Shorty - The Long And Short Of It
DYEAR=2006
DGENRE=Electric Blues
TTITLE0=Go Wild!
TTITLE1=You Better Get Wise To Yourself
TTITLE2=I Want To Report A Crime
TTITLE3=Hard To Stay Above The Ground
TTITLE4=Hard Life
TTITLE5=I'm So Glad I Met You
TTITLE6=Maybe She'll Miss Me
TTITLE7=I'm The Clean Up Man
TTITLE8=The Bottom Line
TTITLE9=No Educated Woman
TTITLE10=I Wonder Who's Sleeping In My Bed
TTITLE11=Red Hot Mama
TTITLE12=Mean Husband Blues
TTITLE13=Hey Joe
EXTD=
EXTT0=
EXTT1=
EXTT2=
EXTT3=
EXTT4=
EXTT5=
EXTT6=
EXTT7=
EXTT8=
EXTT9=
EXTT10=
EXTT11=
EXTT12=
EXTT13=
PLAYORDER=
